<svg xmlns="http://www.w3.org/2000/svg" width="467" height="214" viewBox="0 0 467 214" version="1.1"><path d="M 364.491 78.844 C 357.796 82.012, 352.769 87.113, 349.606 93.949 C 347.909 97.617, 347.500 100.440, 347.500 108.500 C 347.500 116.560, 347.909 119.383, 349.606 123.051 C 352.684 129.704, 357.381 134.549, 363.818 137.710 C 368.758 140.136, 370.675 140.500, 378.500 140.500 C 386.241 140.500, 388.270 140.123, 393 137.809 C 402.884 132.974, 402.825 133.117, 397.934 125.825 C 395.600 122.346, 393.592 119.369, 393.471 119.209 C 393.351 119.050, 391.733 119.814, 389.876 120.909 C 385.439 123.525, 379.339 124.276, 375.035 122.738 C 364.636 119.022, 363.943 99.383, 374.030 94.279 C 377.393 92.578, 384.303 92.682, 388.654 94.500 C 390.629 95.325, 392.375 96, 392.536 96 C 392.696 96, 394.645 92.847, 396.867 88.993 L 400.907 81.985 398.687 80.531 C 394.023 77.474, 387.655 76, 379.124 76.001 C 371.725 76.001, 369.647 76.405, 364.491 78.844 M 27.667 77.667 C 27.300 78.033, 27 91.983, 27 108.667 L 27 139 48 139 L 69 139 69 135 L 69 131 53 131 L 37 131 37 121.500 L 37 112 51.557 112 L 66.115 112 65.807 107.750 L 65.500 103.500 51.250 103.223 L 37 102.945 37 94.473 L 37 86 52.500 86 L 68 86 68 81.500 L 68 77 48.167 77 C 37.258 77, 28.033 77.300, 27.667 77.667 M 80 108 L 80 139 84.500 139 L 89 139 89.035 114.750 L 89.070 90.500 98.932 114.500 L 108.793 138.500 112.146 138.787 L 115.500 139.075 125 115.787 L 134.500 92.500 134.768 115.750 L 135.037 139 140.033 139 L 145.029 139 144.764 108.250 L 144.500 77.500 138 77.500 L 131.500 77.500 122.022 100.222 C 116.809 112.719, 112.270 122.619, 111.935 122.222 C 111.600 121.825, 107.588 112.500, 103.019 101.500 C 98.449 90.500, 94.253 80.487, 93.695 79.250 C 92.796 77.260, 91.946 77, 86.339 77 L 80 77 80 108 M 158.369 78.481 C 158.056 79.296, 157.979 89.533, 158.197 101.231 C 158.627 124.356, 159.278 127.521, 164.803 133.342 C 169.581 138.376, 174.728 140.441, 182.500 140.441 C 190.627 140.441, 195.857 138.205, 200.739 132.645 C 205.979 126.677, 206.500 123.678, 206.500 99.500 L 206.500 77.500 202 77.500 L 197.500 77.500 197 100 C 196.562 119.723, 196.267 122.884, 194.614 125.614 C 192.016 129.906, 188.044 132, 182.500 132 C 176.580 132, 172.822 129.796, 169.865 124.590 C 167.670 120.726, 167.521 119.299, 167.161 98.750 L 166.780 77 162.859 77 C 160.318 77, 158.737 77.521, 158.369 78.481 M 234 107.981 L 234 139.172 250.276 138.836 C 266.351 138.504, 266.635 138.459, 273.220 135.215 C 284.623 129.597, 289.365 121.638, 289.434 108 C 289.487 97.544, 287.199 92.162, 279.916 85.614 C 272.537 78.980, 268.210 77.780, 249.750 77.246 L 234 76.790 234 107.981 M 297 108 L 297 139 319.042 139 L 341.084 139 340.792 131.250 L 340.500 123.500 327.750 123.220 L 315 122.940 315 119.470 L 315 116 326 116 L 337 116 337 108 L 337 100 326 100 L 315 100 315 96.500 L 315 93 328 93 L 341 93 341 85 L 341 77 319 77 L 297 77 297 108 M 407 107.962 L 407 139 416.500 139 L 426 139 426 130.155 C 426 122.633, 426.294 121.044, 427.964 119.532 C 429.884 117.795, 430.084 117.997, 436.714 128.340 L 443.500 138.925 455.250 138.963 C 461.712 138.983, 467 138.812, 467 138.582 C 467 138.352, 461.600 130.422, 455 120.959 C 448.400 111.496, 443.015 103.472, 443.034 103.127 C 443.052 102.782, 448.002 97.114, 454.034 90.532 C 460.065 83.949, 465 78.212, 465 77.782 C 465 77.352, 460.069 77, 454.043 77 L 443.086 77 434.793 87.141 L 426.500 97.281 426 87.391 L 425.500 77.500 416.250 77.212 L 407 76.925 407 107.962 M 252.803 108.627 L 253.106 123.257 257.738 122.622 C 260.286 122.273, 263.449 121.280, 264.769 120.416 C 269.635 117.227, 271.475 107.466, 268.536 100.432 C 266.857 96.413, 262.263 94.001, 256.282 93.998 L 252.500 93.997 252.803 108.627" stroke="none" fill="#fffcfc" fill-rule="evenodd"/><path d="" stroke="none" fill="#fcfcfc" fill-rule="evenodd"/></svg>